# Blender v2.91.0 OBJ File: 'plants for shader.blend'
# www.blender.org
mtllib Flower .mtl
v 0.048771 -0.266181 -0.071854
v 0.042067 -0.266224 -0.078130
v 0.042544 -0.267272 -0.065194
v 0.035840 -0.267315 -0.071470
v 0.035230 -0.155006 -0.054112
v 0.040177 -0.154140 -0.059401
v 0.034852 -0.154174 -0.064386
v 0.029905 -0.155040 -0.059096
v 0.039705 0.105457 -0.037181
v 0.042073 0.105155 -0.045359
v 0.034379 0.107218 -0.042338
v 0.037520 -0.024875 -0.045779
v 0.032346 -0.025474 -0.050796
v 0.037078 -0.023969 -0.056029
v 0.042252 -0.023370 -0.051012
v 0.041073 0.124822 -0.005232
v 0.058297 0.117978 -0.054961
v -0.003291 0.145600 0.012559
v 0.009698 0.140388 -0.035770
v 0.048363 0.135151 0.021696
v 0.079303 0.128399 -0.075218
v 0.015838 0.134919 -0.012982
v -0.016886 0.154060 -0.036131
v 0.028220 0.129827 -0.061809
v 0.017037 0.150135 -0.079505
v 0.060458 0.117767 -0.025296
v 0.091075 0.126132 -0.014914
v -0.071574 -0.270607 -0.007148
v -0.063413 -0.270572 0.000434
v -0.063999 -0.271118 -0.015300
v -0.055838 -0.271083 -0.007718
v -0.062776 -0.134162 -0.022189
v -0.068793 -0.133756 -0.015714
v -0.062310 -0.133728 -0.009692
v -0.056294 -0.134134 -0.016167
v -0.085854 0.181622 -0.027468
v -0.088650 0.180621 -0.017569
v -0.079490 0.183813 -0.021133
v -0.074371 0.023598 -0.024673
v -0.068033 0.022930 -0.018645
v -0.073833 0.024127 -0.012203
v -0.080171 0.024794 -0.018230
v -0.089016 0.206817 -0.065043
v -0.109105 0.194478 -0.005138
v -0.036794 0.235988 -0.085518
v -0.051874 0.225992 -0.027226
v -0.098708 0.220387 -0.097046
v -0.135122 0.204486 0.020079
v -0.059083 0.220286 -0.055138
v -0.020595 0.244308 -0.026069
v -0.073432 0.210449 0.003763
v -0.061146 0.234743 0.026357
v -0.111894 0.195804 -0.041088
v -0.149605 0.204457 -0.053086
v 0.025514 -0.271227 -0.152595
v 0.011996 -0.271179 -0.146328
v 0.031772 -0.271910 -0.139089
v 0.018254 -0.271863 -0.132823
v 0.039682 -0.088724 -0.134088
v 0.034712 -0.088181 -0.144814
v 0.023975 -0.088143 -0.139837
v 0.028945 -0.088686 -0.129110
v 0.057901 0.333656 -0.159987
v 0.047061 0.332317 -0.168460
v 0.046836 0.336586 -0.155315
v 0.048627 0.122289 -0.147185
v 0.037956 0.121396 -0.142390
v 0.032916 0.122997 -0.152832
v 0.043587 0.123889 -0.157628
v 0.106022 0.367355 -0.144879
v 0.042025 0.350852 -0.200077
v 0.104934 0.406374 -0.069861
v 0.040399 0.393003 -0.118040
v 0.150549 0.385505 -0.140679
v 0.023976 0.364238 -0.245054
v 0.078606 0.385371 -0.112835
v 0.023132 0.417502 -0.079900
v 0.012947 0.372213 -0.160418
v -0.021246 0.404709 -0.156645
v 0.087945 0.352624 -0.185331
v 0.121889 0.364198 -0.225945
vt 0.113649 0.835277
vt 0.115441 0.837884
vt 0.080291 0.882681
vt 0.078871 0.881612
vt 0.261327 0.716229
vt 0.263993 0.719239
vt 0.189611 0.795489
vt 0.187548 0.793042
vt 0.266672 0.722129
vt 0.269410 0.725010
vt 0.193941 0.800250
vt 0.191681 0.797949
vt 0.271989 0.728033
vt 0.196156 0.802574
vt 0.117119 0.840505
vt 0.119507 0.842510
vt 0.081773 0.884012
vt 0.121940 0.844473
vt 0.082207 0.884885
vt 0.266904 0.460736
vt 0.267674 0.463488
vt 0.256780 0.468019
vt 0.258187 0.455348
vt 0.269517 0.460723
vt 0.268529 0.448748
vt 0.279459 0.457009
vt 0.277675 0.471337
vt 0.266463 0.476730
vt 0.293822 0.492169
vt 0.290751 0.456022
vt 0.262943 0.487763
vt 0.235880 0.473133
vt 0.249713 0.451225
vt 0.273572 0.427473
vt 0.113649 0.835277
vt 0.115441 0.837884
vt 0.080291 0.882681
vt 0.078871 0.881612
vt 0.261327 0.716229
vt 0.263993 0.719239
vt 0.189611 0.795489
vt 0.187548 0.793042
vt 0.266672 0.722129
vt 0.269410 0.725010
vt 0.193941 0.800250
vt 0.191681 0.797949
vt 0.271989 0.728033
vt 0.196156 0.802574
vt 0.117119 0.840505
vt 0.119507 0.842510
vt 0.081773 0.884012
vt 0.121940 0.844473
vt 0.082207 0.884885
vt 0.266904 0.460736
vt 0.267674 0.463488
vt 0.256780 0.468019
vt 0.258187 0.455348
vt 0.269517 0.460723
vt 0.268529 0.448748
vt 0.279459 0.457009
vt 0.277675 0.471337
vt 0.266463 0.476730
vt 0.293822 0.492169
vt 0.290751 0.456022
vt 0.262943 0.487763
vt 0.235880 0.473133
vt 0.249713 0.451225
vt 0.273572 0.427473
vt 0.113649 0.835277
vt 0.115441 0.837884
vt 0.080291 0.882681
vt 0.078871 0.881612
vt 0.261327 0.716229
vt 0.263993 0.719239
vt 0.189611 0.795489
vt 0.187548 0.793042
vt 0.266672 0.722129
vt 0.269410 0.725010
vt 0.193941 0.800250
vt 0.191681 0.797949
vt 0.271989 0.728033
vt 0.196156 0.802574
vt 0.117119 0.840505
vt 0.119507 0.842510
vt 0.081773 0.884012
vt 0.121940 0.844473
vt 0.082207 0.884885
vt 0.266904 0.460736
vt 0.267674 0.463488
vt 0.256780 0.468019
vt 0.258187 0.455348
vt 0.269517 0.460723
vt 0.268529 0.448748
vt 0.279459 0.457009
vt 0.277675 0.471337
vt 0.266463 0.476730
vt 0.293822 0.492169
vt 0.290751 0.456022
vt 0.262943 0.487763
vt 0.235880 0.473133
vt 0.249713 0.451225
vt 0.273572 0.427473
vn -0.9996 0.0225 -0.0154
vn 0.0858 -0.0611 0.9944
vn -0.0032 -0.8359 0.5488
vn -0.7060 -0.6843 -0.1823
vn -0.9983 -0.0550 0.0203
vn 0.0291 -0.0963 0.9949
vn 0.0185 -0.0792 0.9967
vn -0.9987 -0.0222 0.0454
vn 0.9958 0.0811 -0.0423
vn -0.0484 0.1185 -0.9918
vn -0.0575 0.0932 -0.9940
vn 0.9992 0.0306 -0.0253
vn 0.9944 -0.0060 -0.1051
vn 0.0336 0.0680 -0.9971
vn 0.2351 -0.8147 -0.5300
vn -0.4380 -0.7207 -0.5372
vn 0.1473 -0.9014 -0.4072
vn 0.2825 -0.9356 0.2116
vn -0.1524 -0.9056 0.3958
vn -0.5050 -0.8445 0.1782
vn -0.6388 -0.7567 -0.1389
vn -0.4012 -0.9060 0.1343
vn -0.1202 -0.9345 0.3350
vn -0.5270 -0.8384 -0.1391
vn -0.4364 -0.7891 -0.4323
vn 0.0689 -0.9134 -0.4011
vn 0.2171 -0.9641 0.1526
vn 0.9969 0.0774 0.0140
vn -0.0873 -0.0180 -0.9960
vn 0.0468 -0.8071 -0.5885
vn 0.7439 -0.6518 0.1474
vn 0.9997 0.0017 -0.0254
vn -0.0288 -0.0499 -0.9983
vn -0.0192 -0.0322 -0.9993
vn 0.9981 0.0357 -0.0489
vn -0.9985 0.0233 0.0486
vn 0.0468 0.0733 0.9962
vn 0.0573 0.0485 0.9972
vn -0.9992 -0.0263 0.0292
vn -0.9920 -0.0665 0.1071
vn -0.0322 0.0181 0.9993
vn -0.1868 -0.8510 0.4908
vn 0.4801 -0.7201 0.5008
vn -0.0949 -0.9267 0.3637
vn -0.2312 -0.9387 -0.2557
vn 0.2004 -0.8757 -0.4393
vn 0.5502 -0.8055 -0.2199
vn 0.6806 -0.7257 0.1007
vn 0.4503 -0.8748 -0.1788
vn 0.1702 -0.9092 -0.3799
vn 0.5734 -0.8134 0.0972
vn 0.4818 -0.7833 0.3927
vn -0.0160 -0.9340 0.3568
vn -0.1640 -0.9663 -0.1983
vn -0.3902 0.0774 0.9174
vn 0.9550 -0.0180 0.2961
vn 0.5270 -0.8072 0.2660
vn -0.4180 -0.6518 0.6327
vn -0.3548 0.0017 0.9349
vn 0.9350 -0.0499 0.3511
vn 0.9322 -0.0322 0.3604
vn -0.3325 0.0357 0.9424
vn 0.3329 0.0233 -0.9427
vn -0.9398 0.0733 -0.3337
vn -0.9447 0.0485 -0.3243
vn 0.3511 -0.0263 -0.9359
vn 0.2763 -0.0665 -0.9587
vn -0.9128 0.0181 -0.4080
vn -0.3836 -0.8510 -0.3586
vn -0.6453 -0.7201 0.2549
vn -0.3007 -0.9267 -0.2255
vn 0.3242 -0.9387 -0.1172
vn 0.3308 -0.8757 0.3518
vn -0.0046 -0.8055 0.5925
vn -0.3508 -0.7257 0.5918
vn -0.0049 -0.8748 0.4845
vn 0.2872 -0.9092 0.3013
vn -0.3070 -0.8134 0.4940
vn -0.5458 -0.7833 0.2973
vn -0.3242 -0.9340 -0.1499
vn 0.2456 -0.9663 -0.0768
usemtl None
s 1
f 13/1/1 12/2/2 9/3/3 11/4/4
f 4/5/5 3/6/6 5/7/7 8/8/8
f 1/9/9 2/10/10 7/11/11 6/12/12
f 2/10/10 4/13/5 8/14/8 7/11/11
f 3/6/6 1/9/9 6/12/12 5/7/7
f 15/15/13 14/16/14 10/17/15
f 14/16/14 13/18/1 11/19/4 10/17/15
f 12/2/2 15/15/13 10/17/15 9/3/3
f 5/7/7 6/12/12 15/15/13 12/2/2
f 7/11/11 8/14/8 13/18/1 14/16/14
f 6/12/12 7/11/11 14/16/14 15/15/13
f 8/8/8 5/7/7 12/2/2 13/1/1
f 10/20/15 11/21/4 24/22/16 17/23/17
f 9/24/3 26/25/18 16/26/19
f 11/21/4 22/27/20 19/28/21
f 18/29/22 22/27/20 16/26/19 20/30/23
f 19/28/21 22/27/20 18/29/22 23/31/24
f 17/23/17 24/22/16 25/32/25 21/33/26
f 16/26/19 26/25/18 27/34/27 20/30/23
f 22/27/20 11/21/4 9/24/3 16/26/19
f 24/22/16 11/21/4 19/28/21
f 11/21/4 10/20/15 9/24/3
f 25/32/25 24/22/16 19/28/21 23/31/24
f 27/34/27 26/25/18 17/23/17 21/33/26
f 26/25/18 9/24/3 10/20/15 17/23/17
f 40/35/28 39/36/29 36/37/30 38/38/31
f 31/39/32 30/40/33 32/41/34 35/42/35
f 28/43/36 29/44/37 34/45/38 33/46/39
f 29/44/37 31/47/32 35/48/35 34/45/38
f 30/40/33 28/43/36 33/46/39 32/41/34
f 42/49/40 41/50/41 37/51/42
f 41/50/41 40/52/28 38/53/31 37/51/42
f 39/36/29 42/49/40 37/51/42 36/37/30
f 32/41/34 33/46/39 42/49/40 39/36/29
f 34/45/38 35/48/35 40/52/28 41/50/41
f 33/46/39 34/45/38 41/50/41 42/49/40
f 35/42/35 32/41/34 39/36/29 40/35/28
f 37/54/42 38/55/31 51/56/43 44/57/44
f 36/58/30 53/59/45 43/60/46
f 38/55/31 49/61/47 46/62/48
f 45/63/49 49/61/47 43/60/46 47/64/50
f 46/62/48 49/61/47 45/63/49 50/65/51
f 44/57/44 51/56/43 52/66/52 48/67/53
f 43/60/46 53/59/45 54/68/54 47/64/50
f 49/61/47 38/55/31 36/58/30 43/60/46
f 51/56/43 38/55/31 46/62/48
f 38/55/31 37/54/42 36/58/30
f 52/66/52 51/56/43 46/62/48 50/65/51
f 54/68/54 53/59/45 44/57/44 48/67/53
f 53/59/45 36/58/30 37/54/42 44/57/44
f 67/69/55 66/70/56 63/71/57 65/72/58
f 58/73/59 57/74/60 59/75/61 62/76/62
f 55/77/63 56/78/64 61/79/65 60/80/66
f 56/78/64 58/81/59 62/82/62 61/79/65
f 57/74/60 55/77/63 60/80/66 59/75/61
f 69/83/67 68/84/68 64/85/69
f 68/84/68 67/86/55 65/87/58 64/85/69
f 66/70/56 69/83/67 64/85/69 63/71/57
f 59/75/61 60/80/66 69/83/67 66/70/56
f 61/79/65 62/82/62 67/86/55 68/84/68
f 60/80/66 61/79/65 68/84/68 69/83/67
f 62/76/62 59/75/61 66/70/56 67/69/55
f 64/88/69 65/89/58 78/90/70 71/91/71
f 63/92/57 80/93/72 70/94/73
f 65/89/58 76/95/74 73/96/75
f 72/97/76 76/95/74 70/94/73 74/98/77
f 73/96/75 76/95/74 72/97/76 77/99/78
f 71/91/71 78/90/70 79/100/79 75/101/80
f 70/94/73 80/93/72 81/102/81 74/98/77
f 76/95/74 65/89/58 63/92/57 70/94/73
f 78/90/70 65/89/58 73/96/75
f 65/89/58 64/88/69 63/92/57
f 79/100/79 78/90/70 73/96/75 77/99/78
f 81/102/81 80/93/72 71/91/71 75/101/80
f 80/93/72 63/92/57 64/88/69 71/91/71
